<?xml version="1.0" standalone="no"?>
<!DOCTYPE svg PUBLIC "-//W3C//DTD SVG 20010904//EN"
 "http://www.w3.org/TR/2001/REC-SVG-20010904/DTD/svg10.dtd">
<svg version="1.0" xmlns="http://www.w3.org/2000/svg"
 width="1120.000000pt" height="1120.000000pt" viewBox="0 0 1120.000000 1120.000000"
 preserveAspectRatio="xMidYMid meet">
<metadata>
Created by potrace 1.11, written by Peter Selinger 2001-2013
</metadata>
<g transform="translate(0.000000,1120.000000) scale(0.100000,-0.100000)"
fill="#000000" stroke="none">
<path d="M5405 9594 c-397 -60 -753 -250 -1080 -579 -555 -558 -956 -1461
-1104 -2490 -49 -334 -55 -448 -55 -925 0 -477 6 -591 55 -925 200 -1392 853
-2516 1695 -2920 108 -52 266 -106 384 -131 122 -27 478 -27 600 0 354 77 679
264 975 561 614 617 1016 1602 1142 2795 25 238 25 1003 0 1240 -126 1194
-528 2179 -1142 2795 -291 292 -604 475 -952 556 -69 16 -131 21 -288 24 -110
2 -213 1 -230 -1z m-284 -554 c306 -95 397 -516 214 -985 -80 -204 -205 -395
-365 -555 -211 -211 -425 -319 -631 -320 -290 0 -461 226 -446 590 14 335 184
698 457 970 157 157 333 267 486 304 88 21 210 20 285 -4z"/>
</g>
</svg>
